<svg width="21.230469" height="12.588867" viewBox="0 0 21.2305 12.5889" fill="none" xmlns="http://www.w3.org/2000/svg" xmlns:xlink="http://www.w3.org/1999/xlink">
	<desc>
			Created with Pixso.
	</desc>
	<defs/>
	<path id="Vector" d="M0 0.74C0 0.33 0.39 0 0.88 0L4.42 0C4.84 0 5.2 0.24 5.29 0.59L6.03 3.7L20.34 3.7C20.6 3.7 20.85 3.8 21.02 3.97C21.19 4.14 21.26 4.36 21.21 4.58L19.79 10.79C19.67 11.31 19.34 11.77 18.85 12.09C18.37 12.42 17.77 12.59 17.15 12.58L8.57 12.58C7.95 12.59 7.34 12.42 6.86 12.09C6.37 11.77 6.04 11.31 5.92 10.8L4.44 4.62C4.44 4.59 4.43 4.57 4.43 4.55L3.69 1.48L0.88 1.48C0.39 1.48 0 1.14 0 0.74L0 0.74ZM6.38 5.18L7.66 10.51C7.7 10.68 7.81 10.83 7.97 10.94C8.13 11.05 8.33 11.11 8.54 11.1L8.56 11.1L17.16 11.1L17.17 11.1C17.38 11.11 17.58 11.05 17.75 10.94C17.91 10.83 18.02 10.68 18.06 10.51L19.27 5.18L6.38 5.18Z" fill="#FFFFFF" fill-opacity="1.000000" fill-rule="evenodd"/>
</svg>
