<svg width="16.642578" height="14.850586" viewBox="0 0 16.6426 14.8506" fill="none" xmlns="http://www.w3.org/2000/svg" xmlns:xlink="http://www.w3.org/1999/xlink">
	<desc>
			Created with Pixso.
	</desc>
	<defs/>
	<path id="circle2017" d="M7.46 0C3.35 0 0 2.99 0 6.66C0 10.33 3.35 13.33 7.46 13.33C9.22 13.33 10.84 12.78 12.12 11.87L15.23 14.64C15.39 14.77 15.6 14.85 15.81 14.85C16.03 14.84 16.24 14.77 16.39 14.63C16.55 14.49 16.63 14.31 16.64 14.11C16.64 13.92 16.56 13.73 16.41 13.59L13.3 10.81C14.32 9.67 14.94 8.23 14.94 6.66C14.94 2.99 11.58 0 7.46 0ZM7.46 1.48C10.68 1.48 13.27 3.79 13.27 6.66C13.27 9.53 10.68 11.85 7.46 11.85C4.25 11.85 1.66 9.53 1.66 6.66C1.66 3.79 4.25 1.48 7.46 1.48Z" fill="#443297" fill-opacity="1.000000" fill-rule="nonzero"/>
</svg>
