<svg width="18.732422" height="14.037109" viewBox="0 0 18.7324 14.0371" fill="none" xmlns="http://www.w3.org/2000/svg" xmlns:xlink="http://www.w3.org/1999/xlink">
	<desc>
			Created with Pixso.
	</desc>
	<defs/>
	<path id="Vector" d="M13.58 0C16.42 0 18.73 1.89 18.73 4.55C18.73 9.86 11.7 12.89 9.36 14.03C7.02 12.89 0 9.86 0 4.55C0 1.89 2.34 0 5.15 0C6.89 0 8.42 0.75 9.36 1.51C10.3 0.75 11.83 0 13.58 0ZM10.24 11.83C11.06 11.41 11.81 10.99 12.5 10.54C15.29 8.75 16.85 6.78 16.85 4.55C16.85 2.76 15.41 1.51 13.58 1.51C12.57 1.51 11.48 1.95 10.69 2.59L9.36 3.66L8.04 2.59C7.24 1.95 6.15 1.51 5.15 1.51C3.33 1.51 1.87 2.77 1.87 4.55C1.87 6.78 3.43 8.75 6.22 10.54C6.92 10.99 7.66 11.41 8.49 11.83C8.77 11.98 9.04 12.12 9.36 12.27C9.68 12.12 9.96 11.98 10.24 11.83Z" fill="#FFFFFF" fill-opacity="1.000000" fill-rule="nonzero"/>
</svg>
