<svg width="16.022461" height="16.291016" viewBox="0 0 16.0225 16.291" fill="none" xmlns="http://www.w3.org/2000/svg" xmlns:xlink="http://www.w3.org/1999/xlink">
	<desc>
			Created with Pixso.
	</desc>
	<defs/>
	<path id="Vector" d="M8.01 7.4C8.89 7.4 9.75 7.18 10.48 6.78C11.21 6.37 11.78 5.79 12.12 5.11C12.46 4.44 12.54 3.69 12.37 2.98C12.2 2.26 11.78 1.6 11.15 1.08C10.53 0.56 9.74 0.21 8.87 0.07C8.01 -0.08 7.12 0 6.3 0.28C5.49 0.56 4.79 1.03 4.31 1.64C3.82 2.25 3.56 2.97 3.56 3.7C3.56 4.68 4.03 5.62 4.86 6.31C5.7 7.01 6.83 7.4 8.01 7.4ZM8.01 1.48C8.53 1.48 9.05 1.61 9.49 1.85C9.93 2.09 10.27 2.44 10.47 2.85C10.68 3.25 10.73 3.7 10.62 4.13C10.52 4.56 10.27 4.96 9.89 5.27C9.52 5.58 9.04 5.79 8.53 5.88C8.01 5.96 7.47 5.92 6.98 5.75C6.5 5.58 6.08 5.3 5.79 4.93C5.49 4.57 5.34 4.14 5.34 3.7C5.34 3.11 5.62 2.54 6.12 2.13C6.62 1.71 7.3 1.48 8.01 1.48ZM0 15.55L0 12.58C0 11.6 0.47 10.66 1.3 9.97C2.13 9.27 3.27 8.88 4.45 8.88L11.57 8.88C12.75 8.88 13.88 9.27 14.71 9.97C15.55 10.66 16.02 11.6 16.02 12.58L16.02 15.55C16.02 15.74 15.92 15.93 15.76 16.07C15.59 16.21 15.36 16.29 15.13 16.29C14.89 16.29 14.66 16.21 14.5 16.07C14.33 15.93 14.24 15.74 14.24 15.55L14.24 12.58C14.24 11.99 13.96 11.43 13.46 11.01C12.95 10.6 12.28 10.36 11.57 10.36L4.45 10.36C3.74 10.36 3.06 10.6 2.56 11.01C2.06 11.43 1.78 11.99 1.78 12.58L1.78 15.55C1.78 15.74 1.68 15.93 1.51 16.07C1.35 16.21 1.12 16.29 0.88 16.29C0.65 16.29 0.42 16.21 0.26 16.07C0.09 15.93 0 15.74 0 15.55Z" fill="#FFFFFF" fill-opacity="1.000000" fill-rule="nonzero"/>
</svg>
